<?xml version="1.0" encoding="iso-8859-1"?>
<!--Generator: Adobe Illustrator 19.0.0, SVG Export Plug-In . SVG Version: 6.00 Build 0)-->
<!--License: CC0. Made by SVG Repo: https://www.svgrepo.com/svg/238206/minimize-->
<svg version="1.1" id="Layer_1" xmlns="http://www.w3.org/2000/svg" xmlns:xlink="http://www.w3.org/1999/xlink" x="0px" y="0px" viewBox="0 0 512 512" fill="#40444b" style="enable-background:new 0 0 512 512" xml:space="preserve">
  <g>
    <g>
      <g>
        <path d="M213.333,42.667C201.551,42.667,192,52.218,192,64v97.83L36.418,6.248c-8.331-8.331-21.839-8.331-30.17,0
				c-8.331,8.331-8.331,21.839,0,30.17L161.83,192H64c-11.782,0-21.333,9.551-21.333,21.333c0,11.782,9.551,21.333,21.333,21.333
				h149.333c0.007,0,0.014-0.001,0.021-0.001c0.696-0.001,1.391-0.037,2.084-0.105c0.318-0.031,0.627-0.091,0.94-0.136
				c0.375-0.054,0.75-0.098,1.122-0.171c0.359-0.071,0.708-0.17,1.061-0.259c0.322-0.081,0.645-0.151,0.964-0.248
				c0.346-0.105,0.68-0.234,1.018-0.356c0.318-0.114,0.639-0.219,0.953-0.349c0.316-0.131,0.618-0.284,0.926-0.43
				c0.323-0.152,0.649-0.296,0.966-0.465c0.295-0.158,0.575-0.338,0.861-0.509c0.311-0.186,0.626-0.361,0.929-0.564
				c0.316-0.211,0.613-0.447,0.917-0.674c0.253-0.19,0.513-0.365,0.759-0.568c1.087-0.892,2.085-1.889,2.977-2.977
				c0.202-0.246,0.378-0.506,0.568-0.759c0.228-0.304,0.463-0.601,0.674-0.917c0.203-0.303,0.379-0.618,0.564-0.929
				c0.171-0.286,0.351-0.566,0.509-0.861c0.169-0.317,0.313-0.643,0.465-0.966c0.145-0.308,0.299-0.611,0.43-0.926
				c0.13-0.314,0.235-0.635,0.349-0.953c0.122-0.338,0.251-0.672,0.356-1.018c0.096-0.318,0.167-0.642,0.248-0.964
				c0.089-0.353,0.188-0.701,0.259-1.061c0.074-0.372,0.118-0.748,0.171-1.122c0.045-0.314,0.104-0.622,0.136-0.94
				c0.069-0.7,0.106-1.402,0.106-2.105V64C234.667,52.218,225.115,42.667,213.333,42.667z"/>
        <path d="M505.752,475.582L350.17,320H448c11.782,0,21.333-9.551,21.333-21.333c0-11.782-9.551-21.333-21.333-21.333H298.667
				c-0.703,0-1.405,0.037-2.105,0.106c-0.318,0.031-0.627,0.091-0.94,0.136c-0.375,0.054-0.75,0.098-1.122,0.171
				c-0.359,0.071-0.708,0.17-1.061,0.259c-0.322,0.081-0.645,0.151-0.964,0.248c-0.346,0.105-0.68,0.234-1.018,0.356
				c-0.318,0.114-0.639,0.219-0.953,0.349c-0.316,0.131-0.618,0.284-0.926,0.43c-0.323,0.152-0.649,0.296-0.966,0.465
				c-0.295,0.158-0.575,0.338-0.861,0.509c-0.311,0.186-0.626,0.361-0.929,0.564c-0.316,0.211-0.613,0.447-0.917,0.674
				c-0.253,0.19-0.513,0.365-0.759,0.568c-1.087,0.892-2.085,1.889-2.977,2.977c-0.202,0.246-0.378,0.506-0.568,0.759
				c-0.228,0.304-0.463,0.601-0.674,0.917c-0.203,0.303-0.379,0.618-0.564,0.929c-0.171,0.286-0.351,0.566-0.509,0.861
				c-0.169,0.317-0.313,0.643-0.465,0.966c-0.145,0.308-0.299,0.611-0.43,0.926c-0.13,0.314-0.235,0.635-0.349,0.953
				c-0.122,0.338-0.251,0.672-0.356,1.018c-0.096,0.318-0.167,0.642-0.248,0.964c-0.089,0.353-0.188,0.701-0.259,1.061
				c-0.074,0.372-0.118,0.748-0.171,1.122c-0.045,0.314-0.104,0.622-0.136,0.94c-0.068,0.693-0.105,1.388-0.105,2.084
				c0,0.007-0.001,0.014-0.001,0.021V448c0,11.782,9.551,21.333,21.333,21.333c11.782,0,21.333-9.551,21.333-21.333v-97.83
				l155.582,155.582c8.331,8.331,21.839,8.331,30.17,0C514.083,497.42,514.083,483.913,505.752,475.582z"/>
      </g>
    </g>
  </g>
</svg>
